<svg width="27" height="27" viewBox="0 0 27 27" fill="none" xmlns="http://www.w3.org/2000/svg">
<path d="M26.5073 24.1259L21.281 18.8979C25.1916 13.6725 24.1253 6.26664 18.8995 2.35645C13.6737 -1.55374 6.26716 -0.487562 2.35664 4.73781C-1.55387 9.96319 -0.487603 17.3691 4.73821 21.2793C8.93602 24.4203 14.7016 24.4203 18.8995 21.2793L24.1279 26.5073C24.785 27.1642 25.8502 27.1642 26.5072 26.5073C27.1643 25.8503 27.1643 24.7851 26.5072 24.1282L26.5073 24.1259ZM11.8624 20.2702C7.21796 20.2702 3.45293 16.5055 3.45293 11.8614C3.45293 7.21735 7.21796 3.45264 11.8624 3.45264C16.5069 3.45264 20.2719 7.21735 20.2719 11.8614C20.267 16.5034 16.5048 20.2653 11.8624 20.2702Z" fill="url(#paint0_linear_2458_68)"/>
<defs>
<linearGradient id="paint0_linear_2458_68" x1="11.2499" y1="2.7" x2="13.4996" y2="27" gradientUnits="userSpaceOnUse">
<stop stop-color="#EA8F23"/>
<stop offset="0.33" stop-color="#EA3650"/>
<stop offset="0.66" stop-color="#0895CD"/>
<stop offset="1" stop-color="#119398"/>
</linearGradient>
</defs>
</svg>
